<svg xmlns="http://www.w3.org/2000/svg" viewBox="0 0 294.25 214.59"><defs><style>.cls-1{fill:#f8c346;opacity:0.68;}</style></defs><g id="Layer_2" data-name="Layer 2"><g id="Layer_1-2" data-name="Layer 1"><path class="cls-1" d="M174.88,11.47c55.58,29.61,75.9,110.87,47.17,156-13.62,21.37-35.13,29.76-50,35.54-41.83,16.3-114.51,21.6-151.5-26.32C2.19,152.88-4.6,119.55,3.17,90.35,20.34,25.89,109.75-23.22,174.88,11.47Z"/><circle class="cls-1" cx="111.61" cy="117.34" r="94.47"/><path d="M121.76,87.33l27.87-4.56V97c0,10.1,0,20.2,0,30.3a17.53,17.53,0,0,0,.8,5.5c.91,2.63,3.22,3.37,5.78,2.91s3.36-2.11,3.35-4.61c-.09-11.22,0-22.45-.07-33.67,0-3.72.07-7.55-4.41-10.34l26.71-4.29v4.4c0,15.71,0,31.42,0,47.13,0,4.53.19,8.83,5.1,11.27H159.77c-.13-2.56-.26-5.2-.43-8.6-1.12,1.69-1.8,2.81-2.56,3.87-4.14,5.71-11.11,8-18.34,6-6.28-1.72-10.33-6.49-10.59-13.78-.41-11.59-.29-23.19-.43-34.78C127.35,92.1,126.8,91,121.76,87.33Z"/><path d="M237.22,84.68H259c-10.65,5.06-15.84,14.06-22.4,21.75-1.53,1.79-1.38,3-.17,4.84,5.48,8.33,10.69,16.83,16.28,25.09,2.26,3.34,5.23,6.19,7.78,9.15H223.7c.94-1.31,3-3,3.27-4.93.28-2.1-.79-4.58-1.84-6.61-1.72-3.3-3.89-6.38-5.88-9.54-.26-.41-.6-.78-1.4-1.82-3.39,4.54-7,8.68-9.76,13.27-2.27,3.71-.84,6.2,4.49,9.75H190.35c11.53-5.76,16.91-16.1,24.24-24.57a3.69,3.69,0,0,0,.16-3.44c-5.39-8.82-10.82-17.63-16.55-26.23-1.72-2.58-4.4-4.52-6.44-6.56h36.36c-1,1.55-3.16,3.5-3.21,5.5,0,2.35,1.57,4.84,2.8,7.09,1.47,2.7,3.3,5.2,5.26,8.22,2.42-3,4.65-5.68,6.68-8.46C243.68,91.64,243.15,88.76,237.22,84.68Z"/><path d="M120,123.68c-1.56,13.28-10.34,22.7-21.46,23.72A25.85,25.85,0,0,1,71,129c-3.55-11.9-2.75-23.47,4.08-34.11,6.66-10.4,18.48-14.51,29.66-10.71,10.3,3.5,16.1,13,15.46,25.9H87c1,7.89,3.26,14.53,10.34,18C105.44,132,113.08,131.05,120,123.68Zm-18.57-17.14c-.75-5.32-1.27-10.22-2.18-15-.48-2.55-2.2-5.07-5-4.54a8.94,8.94,0,0,0-5.57,4c-2.61,4.78-2.52,10.15-2,15.63Z"/><path d="M30.52,91,58.86,82.9a28,28,0,0,1,.31,3q0,29.91,0,59.81c0,7.16-1.1,14.06-6.67,19.16-7.71,7-16.92,6.74-26.59,4.68C36.73,167.27,37,159,37,150.76c.13-16.08.07-32.15,0-48.23C37,98,37.05,93.35,30.52,91Z"/><path d="M269.56,74.62c-.15-8.09,4.95-13,13.1-12.71,7.53.31,12.88,6.27,11.32,13.94-2.24,11.07-5.38,22-8.14,32.91-.67,2.65-1.29,5.32-2.12,7.91a2.48,2.48,0,0,1-1.79,1.38,2.28,2.28,0,0,1-1.84-1.16c-3.56-14-7-27.93-10.51-41.9A2.3,2.3,0,0,1,269.56,74.62Z"/><path d="M35.82,70.36A11.26,11.26,0,0,1,47.49,59a11.41,11.41,0,1,1-.37,22.82A11.24,11.24,0,0,1,35.82,70.36Z"/><path d="M293.19,136a11.21,11.21,0,0,1-11.28,11.41,11.29,11.29,0,0,1-.21-22.58A11.15,11.15,0,0,1,293.19,136Z"/></g></g></svg>